<?xml version="1.0" standalone="no"?>
<!DOCTYPE svg PUBLIC "-//W3C//DTD SVG 20010904//EN"
 "http://www.w3.org/TR/2001/REC-SVG-20010904/DTD/svg10.dtd">
<svg version="1.0" xmlns="http://www.w3.org/2000/svg"
 width="6912.000000pt" height="3456.000000pt" viewBox="0 0 6912.000000 3456.000000"
 preserveAspectRatio="xMidYMid meet">

<g transform="translate(0.000000,3456.000000) scale(0.100000,-0.100000)"
fill="#000000" stroke="none">
<path d="M40845 24433 c-1280 -22 -2735 -142 -4075 -338 -678 -99 -1544 -255
-2089 -376 l-134 -30 -161 30 c-954 178 -1970 317 -2866 391 -2486 205 -5248
255 -8465 155 -1488 -47 -3850 -197 -5925 -376 -2880 -248 -5737 -578 -7980
-920 -1947 -297 -2874 -484 -3765 -759 -283 -88 -454 -151 -652 -242 -170 -78
-223 -117 -249 -183 -22 -59 -7 -119 44 -170 44 -44 94 -58 192 -53 70 3 86 8
235 80 353 169 588 246 1314 428 544 136 1278 283 1991 400 572 93 1903 287
2295 335 72 9 454 56 850 105 1679 209 2915 339 5315 560 1426 132 2917 242
4300 320 2147 120 3141 151 4800 151 2194 0 3881 -60 5795 -206 471 -36 1407
-149 2020 -243 l50 -8 -85 -23 c-537 -145 -798 -221 -1139 -333 -737 -241
-1342 -491 -1861 -770 -812 -437 -1379 -829 -1739 -1204 -151 -157 -205 -228
-266 -346 -45 -86 -47 -93 -43 -159 3 -62 7 -72 37 -103 42 -44 92 -56 223
-56 165 0 194 20 380 257 159 202 364 402 606 590 338 263 897 605 1427 873
671 339 1348 598 2230 854 419 121 1088 289 1150 288 79 0 317 -87 450 -164
39 -22 84 -42 101 -45 40 -7 97 20 146 69 36 36 38 41 38 103 0 71 -15 111
-57 157 -30 32 -47 26 192 72 2627 512 5575 683 7860 456 1510 -151 2645 -419
3603 -851 679 -307 1174 -681 1519 -1149 338 -458 492 -917 469 -1399 -20
-432 -119 -783 -332 -1182 -312 -584 -730 -1110 -1327 -1668 -336 -314 -752
-657 -914 -753 -92 -55 -221 -109 -324 -137 -41 -12 -320 -63 -621 -116 -1036
-179 -2048 -382 -3083 -617 -422 -95 -2869 -701 -3184 -788 -197 -54 -238 6
-156 224 20 54 91 225 157 380 179 419 610 1481 770 1895 285 742 705 1946
752 2156 35 159 46 334 25 406 -16 53 -61 103 -116 130 -42 20 -61 23 -147 21
-128 -3 -167 -14 -216 -61 -59 -56 -112 -180 -245 -576 -290 -863 -602 -1700
-993 -2660 -315 -774 -760 -1827 -819 -1934 -69 -128 -174 -240 -286 -305
-113 -67 -351 -149 -577 -201 -148 -34 -763 -208 -1280 -362 -1172 -349 -2373
-753 -3590 -1208 -737 -275 -1106 -450 -1685 -798 -303 -183 -412 -263 -575
-427 -127 -127 -170 -186 -218 -302 -23 -55 -26 -77 -27 -173 0 -105 2 -114
33 -177 62 -126 189 -215 387 -272 276 -80 621 -113 896 -86 53 5 206 19 340
30 717 61 1424 163 2094 301 865 178 2206 512 2641 658 145 49 193 56 259 38
60 -17 61 -22 9 -146 -54 -128 -730 -1481 -989 -1981 -519 -997 -1261 -2368
-2268 -4185 -78 -140 -118 -267 -120 -379 -2 -84 21 -131 85 -174 38 -24 48
-26 136 -24 52 1 113 7 134 13 47 12 115 77 142 134 38 81 455 882 659 1265
312 588 520 966 1040 1895 739 1320 1098 1987 1636 3040 158 308 307 589 331
625 119 176 285 291 530 368 1288 406 2574 887 3785 1415 1045 456 1676 751
2420 1134 830 427 1378 748 2160 1264 431 284 524 330 781 384 126 27 792 126
1339 200 187 25 453 61 590 80 888 123 2591 291 3700 365 777 51 830 53 1573
55 l723 2 31 29 c47 44 62 86 45 127 -17 40 -77 94 -134 119 -95 42 -350 48
-1003 23 -2156 -82 -4057 -252 -5801 -519 -507 -77 -536 -81 -571 -67 -22 8
-28 17 -28 41 0 58 43 115 224 300 549 560 996 1083 1254 1465 224 334 433
751 526 1050 137 444 151 941 36 1343 -161 558 -592 1138 -1176 1580 -352 265
-903 549 -1501 773 -1479 552 -3570 824 -6018 782z m4476 -8077 c-43 -52 -403
-307 -631 -448 -567 -350 -1475 -811 -2660 -1350 -1051 -478 -2221 -958 -3079
-1263 -455 -161 -1053 -344 -1085 -332 -24 9 -38 57 -31 102 7 45 37 114 203
461 66 138 192 406 280 595 244 525 238 514 304 585 65 69 133 113 225 145 70
24 719 201 1221 334 1572 414 2990 744 4807 1119 316 66 472 84 446 52z
m-7680 -1886 c51 -28 62 -116 30 -242 -50 -195 -164 -461 -388 -908 -209 -416
-311 -605 -354 -654 -69 -78 -155 -111 -734 -281 -904 -264 -1996 -541 -2915
-739 -918 -198 -1961 -323 -2295 -276 -91 13 -232 48 -270 67 -77 38 -124 117
-109 180 19 79 139 234 251 324 211 171 847 532 1248 709 398 177 1328 531
1960 748 726 250 2096 680 2835 892 80 23 224 65 320 94 295 89 381 107 421
86z"/>
<path d="M15030 23018 c-100 -51 -111 -84 -235 -652 -251 -1156 -551 -2224
-1066 -3796 -193 -589 -244 -720 -406 -1045 -111 -222 -158 -303 -453 -780
-1165 -1888 -2121 -3700 -3085 -5845 -650 -1447 -1049 -2418 -1486 -3617 -138
-377 -211 -694 -195 -845 17 -171 150 -274 366 -285 112 -6 176 9 266 63 73
44 82 52 217 199 152 166 219 254 350 461 389 614 638 1063 1121 2024 499 993
933 1943 1356 2965 759 1837 1381 3453 1987 5160 74 209 155 430 179 490 57
139 182 382 267 517 119 190 143 269 151 508 3 85 13 196 21 245 9 52 69 250
140 465 183 551 298 930 440 1445 140 505 365 1434 365 1506 0 19 9 82 20 142
29 162 47 441 32 509 -14 62 -55 117 -116 155 -60 39 -173 44 -236 11z m-2860
-8500 c-486 -1386 -1094 -2910 -1657 -4153 -396 -874 -902 -1894 -1345 -2712
l-105 -193 -20 23 c-56 60 -65 123 -34 222 24 75 323 815 549 1360 465 1121
918 2157 1292 2955 353 755 953 1936 1217 2397 53 92 100 153 119 153 2 0 -5
-24 -16 -52z"/>
<path d="M22528 19194 c-78 -18 -150 -56 -183 -96 -16 -18 -48 -76 -72 -128
-25 -52 -53 -111 -63 -130 -10 -19 -68 -143 -128 -275 -60 -132 -149 -323
-197 -425 -48 -102 -172 -369 -275 -595 -414 -903 -745 -1612 -1264 -2706
l-188 -396 -117 -43 c-938 -344 -1184 -430 -1227 -430 -40 0 -85 36 -120 95
-33 57 -168 369 -204 471 -59 168 -60 328 -3 474 51 128 132 192 244 192 85 0
148 -33 245 -129 143 -141 246 -174 340 -110 64 42 94 88 94 142 0 87 -138
253 -262 316 -118 59 -195 74 -388 73 -206 0 -311 -20 -450 -86 -147 -70 -264
-210 -322 -383 -21 -63 -23 -88 -23 -240 1 -188 15 -263 88 -451 l34 -89 -21
-16 c-70 -55 -449 -322 -604 -426 -455 -305 -745 -449 -834 -414 -40 15 -61
64 -60 141 0 79 39 218 187 670 152 464 186 585 187 652 0 129 -92 194 -267
186 -160 -6 -210 -48 -602 -499 -899 -1035 -1448 -1508 -1583 -1364 -21 22
-22 31 -17 102 3 45 16 112 31 157 29 85 321 830 469 1196 l91 225 1 91 c0 83
-2 94 -28 133 -38 57 -114 93 -212 99 -119 7 -115 12 -259 -281 -351 -713
-546 -1228 -596 -1575 -18 -121 -9 -312 18 -382 62 -160 173 -228 382 -237
225 -10 443 54 649 191 72 49 372 299 717 601 l221 192 11 -116 c30 -299 134
-476 338 -574 l89 -42 115 1 c236 2 459 87 780 298 254 167 451 314 763 569
87 71 159 128 161 126 1 -2 11 -24 21 -49 24 -63 23 -137 -4 -193 -47 -97
-212 -217 -786 -572 -389 -241 -617 -489 -655 -715 -21 -125 18 -229 123 -326
106 -99 206 -142 382 -165 306 -40 1029 81 1376 230 215 93 365 215 433 352
51 104 63 180 49 321 -15 147 -53 291 -119 460 -79 199 -86 257 -42 320 52 75
385 245 837 427 84 34 155 60 157 58 3 -2 -28 -71 -67 -153 -93 -195 -301
-645 -350 -757 -42 -94 -48 -141 -24 -187 32 -62 140 -96 255 -80 137 19 200
73 361 311 341 505 642 842 1147 1287 519 456 718 557 751 379 17 -93 -20
-329 -116 -741 -82 -351 -84 -505 -10 -655 82 -168 268 -210 575 -130 92 24
407 140 551 204 80 34 101 41 96 27 -3 -9 -18 -57 -32 -105 -73 -253 30 -427
295 -499 104 -28 343 -30 482 -4 316 61 491 161 923 529 71 60 130 107 132
105 1 -1 8 -42 14 -90 33 -249 135 -391 331 -459 56 -20 84 -23 205 -23 151 1
257 19 442 74 88 26 93 27 88 9 -31 -97 38 -167 175 -177 99 -7 167 16 227 76
43 44 182 232 383 522 244 351 600 751 800 897 239 176 551 323 684 323 108 0
138 -71 101 -237 -48 -212 -6 -293 133 -257 151 40 269 160 319 327 20 67 31
219 21 290 -8 62 -34 122 -65 149 -59 53 -212 84 -365 74 -178 -12 -354 -52
-615 -137 -160 -52 -203 -60 -226 -40 -15 12 -50 88 -82 175 -53 144 -218 189
-334 90 -68 -58 -120 -144 -406 -664 -152 -278 -311 -566 -352 -640 -69 -125
-81 -141 -161 -211 -151 -132 -282 -212 -437 -265 -101 -35 -249 -40 -302 -11
-97 53 -95 230 7 584 22 76 43 158 46 183 13 100 -37 184 -127 213 -136 45
-334 -5 -445 -112 -69 -65 -404 -361 -576 -509 -224 -192 -335 -274 -447 -330
-87 -43 -100 -47 -168 -47 -82 0 -93 7 -93 63 0 56 139 316 264 492 218 307
531 585 868 769 89 48 213 91 265 91 59 -1 120 -34 187 -104 48 -50 71 -65
108 -74 107 -27 187 -1 247 78 32 43 33 48 28 110 -7 91 -31 159 -80 232 -73
109 -161 152 -337 164 -116 8 -253 -8 -375 -42 -91 -26 -335 -138 -480 -221
-348 -199 -710 -500 -908 -754 -64 -83 -71 -89 -199 -159 -382 -212 -575 -287
-709 -278 -109 8 -149 52 -149 166 0 52 38 243 90 456 60 243 73 340 67 486
-6 139 -23 215 -68 307 -38 78 -130 164 -206 193 -151 57 -351 50 -520 -18
-81 -33 -438 -257 -557 -349 -129 -101 -284 -179 -331 -167 -31 8 -37 43 -18
113 19 74 83 206 241 498 552 1018 1612 3406 1612 3633 0 68 -63 121 -142 119
-24 0 -69 -7 -100 -15z m-4072 -5956 c37 -18 73 -114 99 -263 53 -313 -25
-441 -329 -536 -235 -73 -391 -94 -635 -86 -203 7 -269 18 -293 48 -47 56 -9
114 182 273 220 183 414 323 633 455 151 91 166 98 229 115 53 15 75 13 114
-6z"/>
<path d="M64203 16187 c-73 -27 -119 -73 -210 -209 -146 -219 -283 -510 -283
-601 0 -89 72 -114 223 -78 112 27 155 49 214 112 150 161 286 409 323 592 11
55 10 62 -12 104 -41 80 -156 116 -255 80z"/>
<path d="M46805 15219 c-122 -16 -245 -58 -420 -143 -507 -246 -924 -582
-1205 -970 -143 -199 -282 -469 -322 -627 -62 -245 53 -421 317 -486 94 -23
335 -23 461 0 185 34 372 110 531 216 93 62 248 185 423 335 l105 89 7 -39
c40 -243 69 -317 157 -405 133 -132 340 -168 628 -110 81 17 194 49 344 97 16
5 16 1 1 -50 -14 -51 -14 -59 2 -101 54 -140 296 -134 501 13 28 20 117 92
198 160 316 263 1288 972 1333 972 27 0 64 -47 64 -82 0 -41 -37 -106 -235
-413 -232 -360 -259 -432 -199 -518 43 -61 118 -97 204 -97 87 0 204 30 288
75 38 20 121 84 192 146 228 202 345 297 740 600 179 137 537 396 645 464 38
25 72 38 94 39 34 1 36 -1 39 -36 3 -37 -8 -80 -133 -498 -82 -277 -100 -369
-92 -472 11 -133 71 -214 190 -255 72 -24 280 -24 397 1 237 50 532 185 802
368 31 21 59 38 61 38 3 0 -40 -82 -94 -182 -116 -215 -121 -243 -53 -312 84
-84 235 -88 392 -9 39 19 105 75 212 178 273 263 496 453 786 671 331 249 608
418 704 431 35 5 41 3 51 -19 15 -35 -7 -117 -77 -282 -105 -247 -144 -405
-146 -596 -2 -154 16 -215 87 -286 64 -65 141 -93 275 -101 235 -14 427 47
884 280 99 51 183 93 187 95 3 1 8 -32 11 -75 7 -127 69 -218 189 -279 187
-95 503 -96 789 -3 228 74 435 213 818 547 l62 54 0 -34 c0 -77 31 -215 65
-286 60 -126 154 -207 290 -248 89 -27 286 -25 428 5 112 23 312 83 358 107
l26 13 -5 -48 c-13 -142 151 -220 339 -161 105 33 164 74 318 225 178 175 330
310 521 464 292 237 642 483 805 567 241 125 260 79 111 -275 -91 -215 -123
-350 -133 -546 -5 -107 -3 -127 17 -185 12 -35 35 -81 51 -102 38 -48 133 -94
224 -109 97 -16 268 -5 380 25 186 50 673 283 909 433 37 24 70 42 72 40 2 -2
-1 -30 -7 -63 -16 -82 -6 -227 19 -291 32 -85 73 -128 165 -173 102 -50 192
-70 325 -70 297 0 679 118 957 297 346 224 751 637 886 905 59 117 70 218 23
218 -51 0 -166 -85 -411 -302 -385 -342 -687 -519 -1073 -629 -142 -41 -290
-50 -337 -20 -45 29 -48 59 -14 186 47 179 99 307 222 550 156 307 239 493
239 537 0 89 -110 169 -210 151 -58 -10 -152 -58 -193 -97 -71 -70 -217 -308
-341 -554 -55 -108 -82 -151 -103 -163 -15 -9 -125 -74 -243 -144 -500 -296
-868 -442 -957 -380 -12 8 -27 31 -33 51 -21 63 -6 134 53 262 67 143 165 373
202 473 36 98 45 233 21 307 -25 73 -87 139 -166 175 -56 26 -80 31 -171 35
-244 10 -435 -61 -948 -357 -158 -91 -273 -151 -285 -149 -35 5 -32 62 10 169
89 229 93 251 58 320 -18 35 -88 97 -119 105 -42 10 -106 -1 -172 -30 -108
-49 -140 -93 -360 -486 -110 -195 -208 -368 -218 -384 -27 -41 -316 -308 -401
-372 -95 -70 -219 -136 -319 -170 -64 -22 -99 -27 -175 -28 -110 -1 -153 16
-182 74 -38 75 -17 263 58 521 47 161 53 198 43 259 -16 101 -79 148 -209 157
-143 10 -270 -41 -400 -162 -210 -195 -644 -572 -757 -657 -184 -139 -282
-188 -383 -196 -60 -4 -70 -2 -90 18 -30 30 -22 67 41 192 181 361 442 673
764 914 235 176 469 294 583 294 54 0 113 -34 178 -102 47 -49 68 -64 109 -74
114 -31 195 -5 253 80 37 55 40 88 16 180 -37 142 -117 245 -222 285 -135 52
-368 50 -557 -5 -242 -70 -647 -299 -940 -530 -220 -174 -496 -477 -614 -674
-31 -52 -43 -61 -199 -152 -348 -202 -709 -358 -831 -358 -61 0 -85 19 -101
80 -15 55 0 125 46 221 90 185 224 522 240 600 28 141 0 244 -91 327 -72 66
-152 92 -283 92 -233 -1 -415 -71 -899 -348 -155 -89 -288 -162 -296 -162 -8
0 -20 7 -27 15 -16 19 -7 66 32 164 92 231 95 258 41 335 -44 63 -95 88 -167
82 -76 -6 -172 -54 -229 -115 -24 -26 -98 -145 -172 -279 -128 -230 -131 -234
-180 -259 -27 -14 -191 -126 -363 -249 -433 -309 -574 -390 -701 -401 -48 -4
-60 -2 -85 18 -91 72 -76 196 68 550 119 296 196 552 196 654 -1 73 -29 129
-82 157 -93 50 -325 20 -489 -62 -121 -62 -392 -218 -594 -343 -446 -277 -541
-330 -578 -325 -39 5 -34 71 12 190 58 148 68 206 47 263 -30 76 -119 134
-221 142 -75 6 -188 -22 -336 -82 -238 -98 -422 -203 -818 -468 -139 -94 -283
-185 -320 -204 -67 -33 -124 -42 -137 -21 -22 35 2 130 86 338 23 58 78 206
122 330 88 247 98 299 61 347 -31 42 -106 77 -177 81 -72 5 -139 -21 -190 -73
-34 -35 -35 -38 -220 -425 -70 -146 -184 -384 -255 -530 l-128 -265 -119 -108
c-128 -116 -238 -195 -349 -250 -214 -107 -422 -114 -480 -17 -17 29 -20 52
-20 135 1 112 25 237 81 418 58 189 56 273 -10 335 -83 79 -267 82 -415 7 -28
-13 -140 -105 -250 -204 -110 -99 -278 -246 -373 -327 -95 -81 -177 -152 -183
-159 -31 -36 -244 -183 -324 -223 -87 -43 -100 -47 -168 -47 -82 0 -93 7 -93
63 0 56 139 316 264 492 135 191 335 398 522 541 98 75 300 206 381 247 66 34
188 72 230 72 59 0 136 -44 193 -109 42 -49 58 -59 101 -69 101 -24 160 -11
222 47 60 55 72 126 41 232 -46 155 -127 243 -260 284 -61 19 -266 27 -359 14z"/>
</g>
</svg>
